<svg id="ego1o4oip6f61" xmlns="http://www.w3.org/2000/svg" xmlns:xlink="http://www.w3.org/1999/xlink" viewBox="0 0 140 140" shape-rendering="geometricPrecision" text-rendering="geometricPrecision" width="140" height="140"><style><![CDATA[#ego1o4oip6f63_to {animation: ego1o4oip6f63_to__to 3000ms linear infinite normal forwards}@keyframes ego1o4oip6f63_to__to { 0% {transform: translate(11.950000px,6px)} 13.333333% {transform: translate(10.888000px,6.064286px)} 33.333333% {transform: translate(13.157143px,6.064286px)} 53.333333% {transform: translate(11.950000px,6px)} 100% {transform: translate(11.950000px,6px)} }#ego1o4oip6f64_to {animation: ego1o4oip6f64_to__to 3000ms linear infinite normal forwards}@keyframes ego1o4oip6f64_to__to { 0% {transform: translate(12px,4.667001px)} 13.333333% {transform: translate(10.888000px,5.417000px)} 33.333333% {transform: translate(13.545143px,5.417000px)} 53.333333% {transform: translate(12px,4.667001px)} 100% {transform: translate(12px,4.667001px)} }#ego1o4oip6f65_tr {animation: ego1o4oip6f65_tr__tr 3000ms linear infinite normal forwards}@keyframes ego1o4oip6f65_tr__tr { 0% {transform: translate(11.985065px,17.417276px) rotate(3deg)} 30% {transform: translate(11.985065px,17.417276px) rotate(0deg)} 53.333333% {transform: translate(11.985065px,17.417276px) rotate(3deg)} 100% {transform: translate(11.985065px,17.417276px) rotate(3deg)} }]]></style><g id="ego1o4oip6f62" transform="matrix(5.83333349227905 0 0 5.83333349227905 0 0)"><g id="ego1o4oip6f63_to" transform="translate(11.950000,6)"><path id="ego1o4oip6f63" d="M6.750000,6C6.750000,8.899495,9.100505,11.250000,12,11.250000C14.899495,11.250000,17.250000,8.899495,17.250000,6C17.250000,3.100505,14.899495,0.750000,12,0.750000C9.100505,0.750000,6.750000,3.100505,6.750000,6Z" transform="translate(-12,-6)" fill="none" stroke="rgb(255,255,255)" stroke-width="1.500000" stroke-linecap="round" stroke-linejoin="round"/></g><g id="ego1o4oip6f64_to" transform="translate(12,4.667001)"><path id="ego1o4oip6f64" d="M7.476000,3.334000C9.118343,5.038049,11.383341,6.000511,13.750000,6C14.936425,6.000470,16.110435,5.758522,17.200000,5.289000" transform="translate(-12.338000,-4.667001)" fill="none" stroke="rgb(255,255,255)" stroke-width="1.500000" stroke-linecap="round" stroke-linejoin="round"/></g><g id="ego1o4oip6f65_tr" transform="translate(11.985065,17.417276) rotate(3)"><path id="ego1o4oip6f65" d="M2.277716,23.250000C2.277716,17.843958,6.636735,13.461496,12.013858,13.461496C17.390981,13.461496,21.750000,17.843958,21.750000,23.250000" transform="translate(-12,-18.376683)" fill="none" stroke="rgb(255,255,255)" stroke-width="1.500000" stroke-linecap="round" stroke-linejoin="round"/></g><path id="ego1o4oip6f66" d="M8.250000,14.249000L8.250000,15C8.250000,17.071068,9.928932,18.750000,12,18.750000C14.071068,18.750000,15.750000,17.071068,15.750000,15L15.750000,14.249000" fill="none" stroke="rgb(255,255,255)" stroke-width="1.500000" stroke-linecap="round" stroke-linejoin="round"/></g></svg>